<svg id="visual" viewBox="0 0 1900 300" width="1900" height="300" xmlns="http://www.w3.org/2000/svg" xmlns:xlink="http://www.w3.org/1999/xlink" version="1.1"><path d="M0 240L45.2 234.3C90.3 228.7 180.7 217.3 271.2 212C361.7 206.7 452.3 207.3 542.8 210.7C633.3 214 723.7 220 814.2 218.5C904.7 217 995.3 208 1085.8 211C1176.3 214 1266.7 229 1357.2 226.2C1447.7 223.3 1538.3 202.7 1628.8 194.7C1719.3 186.7 1809.7 191.3 1854.8 193.7L1900 196L1900 0L1854.8 0C1809.7 0 1719.3 0 1628.8 0C1538.3 0 1447.7 0 1357.2 0C1266.7 0 1176.3 0 1085.8 0C995.3 0 904.7 0 814.2 0C723.7 0 633.3 0 542.8 0C452.3 0 361.7 0 271.2 0C180.7 0 90.3 0 45.2 0L0 0Z" fill="#ffffff"></path><path d="M0 182L45.2 184.5C90.3 187 180.7 192 271.2 189C361.7 186 452.3 175 542.8 176.2C633.3 177.3 723.7 190.7 814.2 186.5C904.7 182.3 995.3 160.7 1085.8 149.7C1176.3 138.7 1266.7 138.3 1357.2 143.3C1447.7 148.3 1538.3 158.7 1628.8 163.7C1719.3 168.7 1809.7 168.3 1854.8 168.2L1900 168L1900 0L1854.8 0C1809.7 0 1719.3 0 1628.8 0C1538.3 0 1447.7 0 1357.2 0C1266.7 0 1176.3 0 1085.8 0C995.3 0 904.7 0 814.2 0C723.7 0 633.3 0 542.8 0C452.3 0 361.7 0 271.2 0C180.7 0 90.3 0 45.2 0L0 0Z" fill="#fcd1d2"></path><path d="M0 149L45.2 146.3C90.3 143.7 180.7 138.3 271.2 139.2C361.7 140 452.3 147 542.8 140.3C633.3 133.7 723.7 113.3 814.2 106C904.7 98.7 995.3 104.3 1085.8 115.2C1176.3 126 1266.7 142 1357.2 143C1447.7 144 1538.3 130 1628.8 123.3C1719.3 116.7 1809.7 117.3 1854.8 117.7L1900 118L1900 0L1854.8 0C1809.7 0 1719.3 0 1628.8 0C1538.3 0 1447.7 0 1357.2 0C1266.7 0 1176.3 0 1085.8 0C995.3 0 904.7 0 814.2 0C723.7 0 633.3 0 542.8 0C452.3 0 361.7 0 271.2 0C180.7 0 90.3 0 45.2 0L0 0Z" fill="#f3a4a7"></path><path d="M0 81L45.2 80.2C90.3 79.3 180.7 77.7 271.2 73.5C361.7 69.3 452.3 62.7 542.8 60.5C633.3 58.3 723.7 60.7 814.2 66.3C904.7 72 995.3 81 1085.8 82.7C1176.3 84.3 1266.7 78.7 1357.2 75.5C1447.7 72.3 1538.3 71.7 1628.8 70.3C1719.3 69 1809.7 67 1854.8 66L1900 65L1900 0L1854.8 0C1809.7 0 1719.3 0 1628.8 0C1538.3 0 1447.7 0 1357.2 0C1266.7 0 1176.3 0 1085.8 0C995.3 0 904.7 0 814.2 0C723.7 0 633.3 0 542.8 0C452.3 0 361.7 0 271.2 0C180.7 0 90.3 0 45.2 0L0 0Z" fill="#e7767e"></path><path d="M0 40L45.2 37.5C90.3 35 180.7 30 271.2 34.5C361.7 39 452.3 53 542.8 59.5C633.3 66 723.7 65 814.2 59C904.7 53 995.3 42 1085.8 39.7C1176.3 37.3 1266.7 43.7 1357.2 49.5C1447.7 55.3 1538.3 60.7 1628.8 62.7C1719.3 64.7 1809.7 63.3 1854.8 62.7L1900 62L1900 0L1854.8 0C1809.7 0 1719.3 0 1628.8 0C1538.3 0 1447.7 0 1357.2 0C1266.7 0 1176.3 0 1085.8 0C995.3 0 904.7 0 814.2 0C723.7 0 633.3 0 542.8 0C452.3 0 361.7 0 271.2 0C180.7 0 90.3 0 45.2 0L0 0Z" fill="#d64157"></path></svg>